<svg width="87" height="84" viewBox="0 0 87 84" fill="none" xmlns="http://www.w3.org/2000/svg">
<path d="M86.62 33.5426C86.6208 32.8629 86.4641 32.1923 86.1622 31.5833C85.8603 30.9743 85.4214 30.4436 84.88 30.0326L45.98 0.862649C45.2214 0.302345 44.3031 0 43.36 0C42.4169 0 41.4986 0.302345 40.74 0.862649L1.76001 30.0326C1.21603 30.4425 0.774148 30.9726 0.468848 31.5815C0.163548 32.1904 0.00309271 32.8615 7.63321e-06 33.5426V52.3326C-0.00132576 53.0461 0.172051 53.7491 0.504994 54.3801C0.837937 55.0111 1.32032 55.551 1.91001 55.9526L40.91 82.4226C41.6348 82.9179 42.4922 83.1829 43.37 83.1829C44.2478 83.1829 45.1052 82.9179 45.83 82.4226L84.73 55.9627C85.3179 55.5592 85.7988 55.0189 86.1316 54.3883C86.4643 53.7577 86.6388 53.0556 86.64 52.3427L86.62 33.5426ZM82.51 33.2527C82.5567 33.2852 82.5948 33.3286 82.6209 33.3791C82.647 33.4296 82.6605 33.4858 82.66 33.5426V52.3427C82.6609 52.4035 82.6467 52.4636 82.6188 52.5177C82.5909 52.5718 82.5501 52.6181 82.5 52.6526L81.84 53.1026H70.56L45.63 5.60265L82.51 33.2527ZM43.36 64.4826L17.1 53.3526L42.96 4.20265L43.14 4.06265C43.2029 4.01437 43.2808 3.98961 43.36 3.99265C43.4385 3.99443 43.5149 4.01872 43.58 4.06265L43.76 4.20265L69.56 53.3526L43.36 64.4826ZM4.15001 33.2527L41.09 5.59265L16.09 53.1026H4.84001L4.18001 52.6526C4.13052 52.6175 4.09017 52.571 4.06233 52.5171C4.0345 52.4632 4.01998 52.4033 4.02001 52.3427V33.5426C4.01946 33.4878 4.03079 33.4335 4.05324 33.3834C4.07568 33.3333 4.10869 33.2887 4.15001 33.2527ZM6.31001 54.1026H16.31L42.86 65.3526V78.9226L6.31001 54.1026ZM43.86 78.9226V65.3526L70.36 54.1026H80.36L43.86 78.9226Z" fill="black"/>
</svg>
