<svg width="76" height="80" viewBox="0 0 76 80" fill="none" xmlns="http://www.w3.org/2000/svg">
<path d="M75.0601 26.1549L62.2901 8.5849C61.7272 7.80848 60.9324 7.23075 60.0201 6.9349L39.3601 0.224897C38.4509 -0.0749657 37.4694 -0.0749657 36.5601 0.224897L15.9001 6.9349C14.9879 7.23075 14.193 7.80848 13.6301 8.5849L0.860104 26.1549C0.296282 26.9305 -0.00502803 27.866 0.000104152 28.8249V50.5449C-0.00643406 51.504 0.295014 52.4399 0.860104 53.2149L13.6301 70.7949C14.189 71.5797 14.9845 72.165 15.9001 72.4649L36.5601 79.1849C37.4703 79.4785 38.4499 79.4785 39.3601 79.1849L60.0201 72.4649C60.9316 72.173 61.7266 71.5986 62.2901 70.8249L75.0601 53.2149C75.6252 52.4399 75.9266 51.504 75.9201 50.5449V28.8249C75.9252 27.866 75.6239 26.9305 75.0601 26.1549ZM58.7901 10.7449C58.8957 10.7771 58.9873 10.8441 59.0501 10.9349L71.5601 28.1549L60.4101 31.3449L38.1301 15.1649L38.3901 4.1649L58.7901 10.7449ZM51.2901 58.0449H23.9901L15.5501 32.0449L37.6401 16.0449L59.7301 32.0449L51.2901 58.0449ZM16.8701 10.9349C16.9329 10.8441 17.0245 10.7771 17.1301 10.7449L37.4101 4.1549L37.1501 15.1549L14.8701 31.3349L4.3401 28.1849L16.8701 10.9349ZM4.1301 50.8649C4.06166 50.7725 4.02642 50.6598 4.0301 50.5449V29.1249L14.6001 32.2949L23.1301 58.4649L16.6601 68.0849L4.1301 50.8649ZM38.1301 75.3449C38.0203 75.3846 37.9 75.3846 37.7901 75.3449L17.3901 68.7149L23.8901 59.0449H51.4001L58.4001 68.7449L38.1301 75.3449ZM71.8201 50.8649L59.2601 68.1549L52.2601 58.4549L60.7601 32.2949L71.9701 29.0949V50.5449C71.9598 50.666 71.9066 50.7795 71.8201 50.8649Z" fill="black"/>
</svg>
