<svg width="69" height="78" viewBox="0 0 69 78" fill="none" xmlns="http://www.w3.org/2000/svg">
<path d="M66.29 17.7398L36.52 0.599809C35.8353 0.206799 35.0595 0 34.27 0C33.4805 0 32.7047 0.206799 32.02 0.599809L2.25 17.7398C1.57133 18.1316 1.00674 18.6938 0.61211 19.3708C0.217476 20.0479 0.00647861 20.8162 0 21.5998V56.0098C0.000505324 56.8 0.20862 57.5762 0.603502 58.2607C0.998384 58.9451 1.56617 59.5138 2.25 59.9098L32.02 77.0898C32.7047 77.4828 33.4805 77.6896 34.27 77.6896C35.0595 77.6896 35.8353 77.4828 36.52 77.0898L66.29 59.9098C66.9718 59.5115 67.5379 58.9423 67.9325 58.2584C68.3271 57.5744 68.5365 56.7994 68.54 56.0098V21.5998C68.5315 20.8166 68.3197 20.049 67.9253 19.3724C67.5308 18.6957 66.9673 18.1331 66.29 17.7398ZM64.29 56.4398L64.18 56.4998H54.8L64.54 25.9298V56.0098C64.5395 56.0971 64.5161 56.1827 64.4723 56.2581C64.4284 56.3335 64.3656 56.3962 64.29 56.4398ZM64.29 21.1998C64.3657 21.2458 64.4284 21.3103 64.4721 21.3873C64.5159 21.4643 64.5392 21.5512 64.54 21.6398V22.6398L53.98 55.7698L35.1 23.0598L63.75 20.8998L64.29 21.1998ZM34.27 23.5998L53.27 56.4798H15.27L34.27 23.5998ZM14.55 55.7698L4 22.5998V21.5998C4.00075 21.5112 4.02411 21.4243 4.06786 21.3473C4.11161 21.2703 4.17431 21.2058 4.25 21.1598L4.77 20.8598L33.44 23.0198L14.55 55.7698ZM13.75 56.4998H4.35L4.25 56.4398C4.17443 56.3962 4.1116 56.3335 4.06774 56.2581C4.02388 56.1827 4.00053 56.0971 4 56.0098V25.9298L13.75 56.4998ZM13.56 57.4998H14.23L27.56 69.8998L6.09 57.4998H13.56ZM15.7 57.4998H52.85L37.11 72.1398L34.52 73.5998C34.444 73.6437 34.3578 73.6668 34.27 73.6668C34.1822 73.6668 34.096 73.6437 34.02 73.5998L31.43 72.1098L15.7 57.4998ZM54.32 57.4998H62.45L40.98 69.8998L54.32 57.4998ZM62.24 20.0198L34.75 22.0798V4.15981L62.24 20.0198ZM33.75 4.15981V22.0798L6.31 20.0198L33.75 4.15981Z" fill="black"/>
</svg>
