<svg width="87" height="76" viewBox="0 0 87 76" fill="none" xmlns="http://www.w3.org/2000/svg">
<path d="M85.7171 70.4677L45.9971 1.67765C45.6995 1.16717 45.2733 0.743636 44.7609 0.449271C44.2486 0.154906 43.668 0 43.0771 0C42.4862 0 41.9056 0.154906 41.3933 0.449271C40.8809 0.743636 40.4547 1.16717 40.1571 1.67765L0.447098 70.4677C0.15322 70.9807 -0.000941112 71.5618 4.32252e-06 72.1531C0.000949757 72.7443 0.156968 73.325 0.452485 73.8371C0.748002 74.3492 1.17268 74.7748 1.68411 75.0714C2.19555 75.3681 2.77586 75.5254 3.3671 75.5276H82.7971C83.3902 75.5315 83.9736 75.3769 84.487 75.0798C85.0003 74.7827 85.425 74.3539 85.7171 73.8376C86.0119 73.325 86.1671 72.744 86.1671 72.1526C86.1671 71.5613 86.0119 70.9803 85.7171 70.4677ZM81.3471 70.9176L43.5771 49.9176V5.48765L81.3471 70.9176ZM43.0771 50.7976L80.3971 71.5276H6.2671L43.0771 50.7976ZM42.5771 5.48765V49.9176L4.5771 71.3577L42.5771 5.48765Z" fill="black"/>
</svg>
