<svg width="82" height="94" viewBox="0 0 82 94" fill="none" xmlns="http://www.w3.org/2000/svg">
<path d="M79.42 21.3829L43.56 0.682871C42.781 0.235446 41.8983 0 41 0C40.1017 0 39.219 0.235446 38.44 0.682871L2.58 21.3829C1.80135 21.8301 1.15343 22.4734 0.70077 23.2489C0.24811 24.0244 0.00649979 24.905 0 25.8029V67.2029C0.00170421 68.0996 0.237954 68.9802 0.685287 69.7573C1.13262 70.5345 1.77547 71.181 2.55 71.6329L38.44 92.3529C39.2202 92.7971 40.1022 93.0314 41 93.0329C41.8992 93.0326 42.7824 92.7945 43.56 92.3429L79.42 71.6429C80.2001 71.1948 80.849 70.5499 81.3017 69.7725C81.7545 68.9951 81.9952 68.1125 82 67.2129V25.8029C81.9935 24.905 81.7519 24.0244 81.2992 23.2489C80.8466 22.4734 80.1987 21.8301 79.42 21.3829ZM40.42 4.14287C40.5903 4.04457 40.7834 3.99282 40.98 3.99282C41.1766 3.99282 41.3697 4.04457 41.54 4.14287L77.42 24.8529L41 45.9329L4.54 24.8829L40.42 4.14287ZM4.56 68.1429C4.38711 68.0408 4.24483 67.8941 4.14807 67.7182C4.05131 67.5423 4.00363 67.3435 4.01 67.1429V25.8029C4.01 25.8029 4.01 25.8029 4.01 25.7429L40.5 46.8029V88.9029H40.44L4.56 68.1429ZM77.95 67.1429C77.9564 67.3435 77.9087 67.5423 77.8119 67.7182C77.7152 67.8941 77.5729 68.0408 77.4 68.1429L41.56 88.8829H41.5V46.8029L78 25.8029C78 25.8029 78 25.8029 78 25.8629L77.95 67.1429Z" fill="black"/>
</svg>
