<svg width="71" height="81" viewBox="0 0 71 81" fill="none" xmlns="http://www.w3.org/2000/svg">
<path d="M68.71 18.4858L37.71 0.595789C37.0298 0.205412 36.2592 0 35.475 0C34.6908 0 33.9202 0.205412 33.24 0.595789L2.24 18.4858C1.56107 18.8789 0.996997 19.4431 0.603981 20.1221C0.210965 20.8011 0.00272208 21.5713 0 22.3558V58.1358C0.000705406 58.9207 0.208097 59.6917 0.601315 60.371C0.994532 61.0504 1.55971 61.6142 2.24 62.0058L33.24 79.8958C33.917 80.2899 34.6866 80.4969 35.47 80.4958C36.2564 80.4959 37.0289 80.2889 37.71 79.8958L68.71 62.0058C69.3896 61.6134 69.9542 61.0494 70.3474 60.3702C70.7405 59.6911 70.9483 58.9205 70.95 58.1358V22.3558C70.9473 21.5713 70.739 20.8011 70.346 20.1221C69.953 19.4431 69.3889 18.8789 68.71 18.4858ZM4.16 58.4358C4.08059 58.3556 4.03419 58.2486 4.03 58.1358V57.1358L34.88 4.27579L35.26 4.05579C35.3301 4.01598 35.4094 3.99529 35.49 3.99579C35.5736 3.99658 35.6559 4.01714 35.73 4.05579L36.11 4.27579L66.95 57.1258V58.1258C66.9467 58.2368 66.9042 58.3431 66.83 58.4258L4.16 58.4358ZM66.95 22.3558V55.1458L37.85 5.28579L66.71 21.9458C66.7828 21.9866 66.8434 22.0462 66.8856 22.1182C66.9278 22.1903 66.95 22.2723 66.95 22.3558ZM4.27 21.9458L33.13 5.28579L4.03 55.1458V22.3558C4.02998 22.2723 4.0522 22.1903 4.09438 22.1182C4.13657 22.0462 4.19718 21.9866 4.27 21.9458ZM35.73 76.4358C35.6579 76.4752 35.5771 76.4958 35.495 76.4958C35.4129 76.4958 35.3321 76.4752 35.26 76.4358L5.8 59.4358H65.18L35.73 76.4358Z" fill="black"/>
</svg>
